<?xml version="1.0" standalone="no"?>
<!DOCTYPE svg PUBLIC "-//W3C//DTD SVG 20010904//EN"
 "http://www.w3.org/TR/2001/REC-SVG-20010904/DTD/svg10.dtd">
<svg version="1.0" xmlns="http://www.w3.org/2000/svg"
 width="627.000000pt" height="627.000000pt" viewBox="0 0 627.000000 627.000000"
 preserveAspectRatio="xMidYMid meet">
<metadata>
Created by potrace 1.14, written by Peter Selinger 2001-2017
</metadata>
<g transform="translate(0.000000,627.000000) scale(0.100000,-0.100000)"
fill="#000000" stroke="none">
<path d="M4405 6230 c28 -114 23 -340 -11 -452 -3 -9 -6 -25 -8 -35 -15 -73
-122 -343 -138 -343 -4 0 -8 4 -8 8 0 26 -122 187 -191 254 -85 82 -235 189
-254 182 -8 -3 -5 -25 11 -72 50 -154 50 -314 -1 -547 -19 -92 -116 -355 -194
-528 -17 -38 -101 -241 -136 -327 -41 -102 -99 -313 -111 -400 -9 -66 -10
-271 -2 -320 16 -85 83 -252 120 -297 15 -19 -82 -184 -147 -248 -58 -58 -170
-141 -214 -159 -50 -19 -152 -23 -196 -6 -16 6 -32 11 -35 11 -17 0 -73 36
-102 64 -121 122 -139 404 -40 635 l19 45 0 -45 c-1 -60 17 -110 52 -146 31
-31 98 -70 106 -62 3 3 -2 22 -11 44 -9 21 -18 74 -20 117 -4 91 13 147 68
224 61 86 79 146 72 240 -4 68 -19 115 -50 164 -30 48 -64 74 -149 113 -80 38
-156 101 -175 146 -7 16 -16 30 -20 30 -4 0 -11 11 -14 25 -14 55 -29 -6 -28
-115 0 -8 -6 -35 -14 -60 -7 -25 -15 -54 -17 -65 -1 -11 -5 -24 -8 -30 -10
-17 -9 -215 1 -241 6 -14 6 -24 0 -24 -5 0 -12 10 -16 22 -6 21 -8 20 -28 -18
-52 -100 -60 -114 -68 -114 -4 0 -8 -6 -8 -12 0 -7 -15 -29 -33 -49 -17 -19
-45 -53 -61 -75 -17 -21 -33 -41 -36 -44 -18 -15 -105 -139 -150 -214 -56 -93
-127 -258 -136 -315 -3 -20 -10 -40 -16 -46 -6 -7 -9 -7 -7 0 1 6 -4 24 -11
40 -15 33 -19 120 -8 175 29 147 29 516 1 635 -3 11 -8 36 -13 55 -10 46 -41
133 -50 143 -4 4 -1 31 7 60 27 105 9 188 -81 377 -11 25 -24 47 -28 48 -5 2
-8 9 -8 16 0 16 -228 398 -244 408 -6 4 -7 8 -3 8 5 0 0 12 -11 28 -49 70
-182 366 -182 404 0 9 -5 20 -10 23 -6 3 -10 16 -10 29 0 12 -3 26 -7 30 -4 3
-8 12 -9 19 -3 16 -13 66 -19 97 -19 91 -25 260 -13 330 15 83 17 90 23 113 4
12 -14 -9 -39 -48 -25 -38 -49 -80 -52 -92 -3 -13 -10 -23 -14 -23 -5 0 -12
-9 -15 -21 -4 -11 -16 -42 -28 -67 -11 -26 -19 -47 -18 -47 2 0 -7 -24 -18
-52 -11 -29 -19 -53 -16 -53 2 0 0 -12 -6 -26 -5 -15 -12 -42 -15 -62 -3 -19
-8 -44 -10 -56 -7 -34 -6 -227 2 -271 3 -22 10 -47 15 -56 4 -9 6 -19 3 -22
-3 -3 2 -27 11 -54 9 -26 18 -55 20 -65 2 -9 11 -30 20 -48 24 -46 13 -47 -21
-3 -15 21 -34 44 -41 52 -22 22 -93 129 -93 140 0 5 -4 11 -8 13 -10 4 -52 93
-63 133 -5 17 -16 58 -25 93 -9 34 -19 60 -22 58 -4 -5 -12 -85 -15 -158 -1
-10 -2 -18 -4 -18 -7 0 -33 60 -26 60 5 0 3 4 -2 8 -6 4 -21 34 -33 67 -13 33
-28 68 -33 77 -5 10 -9 27 -9 38 0 11 -4 20 -8 20 -25 0 -217 -213 -289 -320
-73 -109 -142 -268 -158 -360 -3 -19 -8 -47 -11 -63 -18 -89 -3 -303 25 -356
5 -9 9 -18 9 -21 -3 -25 59 -169 94 -221 9 -14 15 -29 11 -33 -3 -3 -2 -6 3
-6 5 0 18 -16 28 -35 11 -19 23 -35 28 -35 4 0 8 -6 8 -12 0 -7 16 -30 35 -50
18 -21 32 -38 29 -38 -3 0 11 -17 30 -38 25 -26 39 -52 47 -90 9 -46 51 -179
75 -236 7 -17 3 -18 -49 -12 -123 16 -250 72 -327 145 -21 20 -41 32 -43 27
-9 -24 9 -201 29 -286 10 -43 15 -64 20 -86 2 -12 14 -53 26 -90 12 -38 21
-72 20 -76 -1 -5 2 -8 6 -8 5 0 9 -6 9 -13 0 -7 18 -51 41 -99 23 -47 42 -90
42 -96 0 -6 3 -12 8 -14 4 -1 28 -36 55 -75 61 -95 69 -104 151 -186 63 -62
184 -157 200 -157 4 0 27 -15 51 -32 31 -24 45 -42 50 -68 7 -35 29 -105 48
-150 6 -14 11 -27 12 -30 1 -3 4 -12 8 -20 23 -58 48 -163 48 -203 0 -34 4
-47 15 -47 8 0 14 3 14 8 0 4 16 16 35 26 19 10 42 26 52 36 49 47 102 109
117 137 9 18 21 35 27 39 7 4 9 3 6 -3 -3 -5 8 -36 24 -68 29 -58 78 -112 154
-170 54 -41 113 -102 139 -145 52 -83 75 -240 46 -315 -6 -15 -9 -29 -7 -31 9
-9 115 56 165 101 48 43 121 140 135 178 3 8 17 1 38 -19 43 -38 92 -73 146
-102 47 -26 149 -61 176 -62 9 0 17 -4 17 -8 0 -5 6 -9 13 -9 6 -1 30 -4 52
-7 22 -4 58 -9 80 -12 l40 -5 -32 24 c-60 44 -119 116 -142 173 -17 43 -21
115 -7 147 l11 26 59 -40 c188 -131 420 -205 631 -202 101 1 292 24 313 37 15
9 40 -21 70 -84 17 -36 33 -77 36 -92 2 -15 7 -31 9 -35 25 -41 27 -430 3
-618 -20 -152 -25 -319 -14 -410 16 -123 73 -240 159 -324 71 -70 257 -159
274 -131 3 4 -1 10 -9 13 -27 11 -67 76 -85 140 -17 60 -37 217 -27 217 3 0
19 -28 36 -63 17 -34 42 -76 56 -92 13 -17 35 -42 48 -57 52 -61 190 -130 286
-145 53 -8 179 -10 175 -2 -3 4 -24 17 -48 28 -23 12 -56 40 -74 64 -32 43
-83 177 -83 220 0 13 -3 27 -7 30 -3 4 -7 22 -9 39 -4 64 -16 163 -19 175 -2
7 1 15 8 19 7 4 9 4 5 0 -3 -4 0 -25 7 -47 8 -22 14 -40 14 -42 0 -1 4 -13 9
-27 5 -14 19 -52 31 -85 13 -33 27 -65 33 -72 6 -7 8 -13 5 -13 -11 0 82 -170
122 -223 48 -64 121 -134 183 -176 50 -33 178 -94 178 -84 0 3 6 1 13 -5 6 -5
26 -13 42 -16 17 -3 41 -9 55 -12 62 -14 103 -17 210 -18 63 0 140 3 170 7 30
4 73 9 95 12 22 3 76 15 120 26 44 11 87 22 95 24 8 2 53 17 100 35 47 17 90
32 95 34 6 2 21 8 35 14 27 11 20 14 -42 15 -21 0 -38 3 -38 6 0 4 -12 6 -27
7 -101 3 -262 44 -370 95 -35 16 -65 29 -68 29 -6 0 -169 109 -209 142 -50 39
-195 191 -224 233 -15 22 -30 42 -33 45 -6 5 -113 225 -143 293 -15 35 -15 38
2 44 51 17 102 47 131 77 27 28 30 34 14 30 -64 -17 -173 110 -283 326 -23 47
-49 93 -58 103 -8 9 -12 17 -9 17 10 0 -87 137 -138 197 -118 136 -318 260
-485 299 -43 10 -280 12 -286 3 -3 -5 -9 -7 -13 -5 -6 4 -26 0 -101 -18 -8 -2
-28 -7 -45 -11 -16 -4 -36 -12 -43 -18 -9 -7 -27 5 -68 46 -54 54 -62 77 -25
77 34 0 157 68 233 128 41 33 88 67 104 75 33 17 193 74 227 81 12 3 33 7 47
11 157 35 356 22 482 -32 54 -22 172 -93 188 -112 3 -3 18 -17 34 -31 l29 -25
-23 41 c-44 81 -149 190 -238 248 -67 44 -159 83 -244 105 -71 17 -72 18 -38
26 115 25 232 76 320 141 46 33 162 150 193 194 181 258 262 461 273 684 l4
91 -26 -30 c-92 -104 -168 -175 -188 -175 -3 0 9 20 27 43 91 120 170 325 223
582 2 11 6 33 10 48 7 32 10 54 19 147 4 36 9 79 11 95 10 72 13 385 4 385 -6
0 -10 -3 -10 -7 0 -5 -25 -46 -55 -93 -49 -75 -55 -81 -55 -55 -1 51 -10 100
-35 176 -13 41 -20 78 -17 84 4 5 7 24 7 40 1 17 4 35 7 40 7 14 6 524 -2 560
l-7 30 -8 -40 c-13 -64 -90 -231 -122 -267 -9 -10 -12 -18 -7 -18 5 0 4 -4 -1
-8 -6 -4 -16 -18 -23 -32 -14 -28 -66 -90 -75 -90 -3 0 1 16 9 36 35 83 53
205 49 334 -3 124 -5 138 -21 215 -10 48 -9 46 -16 65 -3 8 -14 38 -23 65 -34
98 -167 341 -150 275z"/>
<path d="M3132 3813 c-6 -20 -9 -40 -6 -45 3 -4 1 -8 -4 -8 -14 0 3 -66 22
-85 9 -9 31 -19 50 -22 28 -4 36 -1 45 16 17 30 5 43 -34 37 -52 -9 -69 14
-62 86 3 32 4 58 3 58 -2 0 -8 -16 -14 -37z"/>
<path d="M3090 3769 c-47 -88 -69 -205 -47 -252 19 -39 45 -56 94 -62 l38 -4
-33 27 c-18 15 -32 32 -32 39 0 6 -4 13 -9 15 -28 9 -27 188 0 241 6 9 7 17 5
17 -3 0 -10 -9 -16 -21z"/>
<path d="M3263 1780 c-18 -11 -33 -21 -33 -23 0 -2 15 -1 33 1 45 5 119 -31
154 -74 15 -19 43 -60 61 -92 33 -57 35 -43 5 33 -34 86 -44 105 -78 139 -41
43 -90 48 -142 16z"/>
<path d="M5656 891 c-16 -3 -31 -13 -34 -21 -3 -8 -1 -12 3 -8 8 8 58 -23 90
-56 90 -93 77 -283 -24 -356 -50 -35 -111 -51 -181 -49 -36 2 -71 7 -77 12 -7
5 -13 7 -13 4 0 -10 -62 15 -113 45 -67 39 -70 35 -6 -12 30 -22 59 -43 64
-47 15 -12 137 -70 162 -77 183 -54 371 30 429 191 64 182 -118 408 -300 374z"/>
<path d="M5519 633 c-1 -5 0 -16 1 -27 1 -10 -1 -29 -5 -43 -6 -24 -9 -25 -70
-21 -75 4 -72 -10 3 -19 69 -8 108 9 122 53 9 27 9 38 0 49 -13 16 -49 21 -51
8z"/>
</g>
</svg>
